<?xml version="1.0" encoding="utf-8"?>
<!-- Generator: Adobe Illustrator 23.0.1, SVG Export Plug-In . SVG Version: 6.00 Build 0)  -->
<svg version="1.1" id="Layer_1" xmlns="http://www.w3.org/2000/svg" xmlns:xlink="http://www.w3.org/1999/xlink" x="0px" y="0px"
	 viewBox="0 0 4500 5400" style="enable-background: new 0 0 4500 5400;" xml:space="preserve">
<style type="text/css">
  .st0 { fill: #f7ce65; }
</style>
<g>
	<polygon class="st0" points="820.44,3660.65 0,3942.1 0,1622 	"/>
	<polygon class="st0" points="897.29,3798.78 2057.35,5211.19 89.3,4077.1 	"/>
	<polygon class="st0" points="935.73,3529.79 115.26,1492.18 2114.45,1492.18 1350.1,2813.2 	"/>
	<polygon class="st0" points="2171.58,1336.4 138.13,1336.4 2171.58,188.81 	"/>
	<polygon class="st0" points="4361.87,1336.4 2327.36,1336.4 2327.36,188.81 	"/>
	<polygon class="st0" points="1614.91,2666.77 2249.47,1570.07 2899.59,2691.7 3441.71,3629.49 1058.27,3629.49 	"/>
	<polygon class="st0" points="3411.59,3785.28 2249.47,5199.77 1087.35,3785.28 	"/>
	<polygon class="st0" points="2384.48,1492.18 4384.71,1492.18 3564.25,3529.79 3300.48,3073.88 	"/>
	<polygon class="st0" points="3602.69,3798.78 4410.67,4077.1 2441.61,5211.19 	"/>
	<polygon class="st0" points="4500,1622 4500,3943.14 3679.54,3660.65 	"/>
</g>
</svg>
